# Blender v2.83.0 OBJ File: 'moment.blend'
# www.blender.org
mtllib moment.mtl
o Cylinder_Cylinder.001
v 0.001701 -0.233331 -0.895404
v 0.001701 0.242691 -0.895404
v 0.150763 -0.120963 -0.757937
v 0.150763 0.120963 -0.757937
v 0.295732 -0.120963 -0.713961
v 0.295732 0.120963 -0.713961
v 0.429337 -0.120963 -0.642548
v 0.429337 0.120963 -0.642548
v 0.546442 -0.120963 -0.546442
v 0.546442 0.120963 -0.546442
v 0.642548 -0.120963 -0.429337
v 0.642548 0.120963 -0.429337
v 0.713961 -0.120963 -0.295732
v 0.713961 0.120963 -0.295732
v 0.757937 -0.120963 -0.150763
v 0.757937 0.120963 -0.150763
v 0.772786 -0.120963 -0.000000
v 0.772786 0.120963 -0.000000
v 0.757937 -0.120963 0.150763
v 0.757937 0.120963 0.150763
v 0.713961 -0.120963 0.295732
v 0.713961 0.120963 0.295732
v 0.642548 -0.120963 0.429337
v 0.642548 0.120963 0.429337
v 0.546442 -0.120963 0.546442
v 0.546442 0.120963 0.546442
v 0.429337 -0.120963 0.642548
v 0.429337 0.120963 0.642548
v 0.295732 -0.120963 0.713961
v 0.295732 0.120963 0.713961
v 0.150763 -0.120963 0.757937
v 0.150763 0.120963 0.757937
v -0.000000 -0.120963 0.772786
v -0.000000 0.120963 0.772786
v -0.150763 -0.120963 0.757937
v -0.150763 0.120963 0.757937
v -0.345498 -0.120066 0.688713
v -0.345498 0.120066 0.688713
v -0.490946 -0.113532 0.590614
v -0.490946 0.113532 0.590614
v -0.619838 -0.102184 0.453030
v -0.619838 0.102184 0.453030
v -0.683491 -0.082677 0.326274
v -0.683491 0.082677 0.326274
v -0.703444 -0.059621 0.193341
v -0.703444 0.059621 0.193341
v -0.694993 -0.041305 0.080061
v -0.694993 0.041305 0.080061
v -0.678472 0.000000 0.002620
v 0.100357 -0.120963 -0.504529
v 0.000727 -0.233331 -0.386769
v 0.000783 0.242691 -0.386779
v 0.100357 0.120963 -0.504529
v 0.196858 -0.120963 -0.475256
v 0.196858 0.120963 -0.475256
v 0.285793 -0.120963 -0.427719
v 0.285793 0.120963 -0.427719
v 0.363745 -0.120963 -0.363745
v 0.363745 0.120963 -0.363745
v 0.427719 -0.120963 -0.285793
v 0.427719 0.120963 -0.285793
v 0.475256 -0.120963 -0.196858
v 0.475256 0.120963 -0.196858
v 0.504529 -0.120963 -0.100357
v 0.504529 0.120963 -0.100357
v 0.514413 -0.120963 -0.000000
v 0.514413 0.120963 -0.000000
v 0.504529 -0.120963 0.100357
v 0.504529 0.120963 0.100357
v 0.475256 -0.120963 0.196857
v 0.475256 0.120963 0.196857
v 0.427719 -0.120963 0.285793
v 0.427719 0.120963 0.285793
v 0.363745 -0.120963 0.363745
v 0.363745 0.120963 0.363745
v 0.285793 -0.120963 0.427719
v 0.285793 0.120963 0.427719
v 0.196857 -0.120963 0.475256
v 0.196857 0.120963 0.475256
v 0.100357 -0.120963 0.504529
v 0.100357 0.120963 0.504529
v -0.002467 -0.120543 0.512676
v -0.002467 0.120543 0.512676
v -0.106230 -0.114946 0.518411
v -0.106230 0.114946 0.518411
v -0.259213 -0.104246 0.496457
v -0.259213 0.104246 0.496457
v -0.382265 -0.090246 0.449966
v -0.382265 0.090246 0.449966
v -0.508662 -0.074748 0.353268
v -0.508662 0.074748 0.353268
v -0.572635 -0.059556 0.259191
v -0.572635 0.059556 0.259191
v -0.626958 -0.046472 0.147959
v -0.626958 0.046472 0.147959
v -0.657444 -0.037299 0.075800
v -0.657444 0.037299 0.075800
v 0.001701 0.122187 -0.766049
v 0.001701 -0.119740 -0.766049
v 0.001526 0.120963 -0.509384
v 0.001526 -0.120963 -0.509384
v -0.275161 0.005767 -0.646079
vt 0.984375 0.000000
vt 0.968750 0.000000
vt 0.968750 1.000000
vt 0.984375 1.000000
vt 0.937500 0.000000
vt 0.937500 1.000000
vt 0.906250 0.000000
vt 0.906250 1.000000
vt 0.875000 0.000000
vt 0.875000 1.000000
vt 0.843750 0.000000
vt 0.843750 1.000000
vt 0.812500 0.000000
vt 0.812500 1.000000
vt 0.781250 0.000000
vt 0.781250 1.000000
vt 0.750000 0.000000
vt 0.750000 1.000000
vt 0.718750 0.000000
vt 0.718750 1.000000
vt 0.687500 0.000000
vt 0.687500 1.000000
vt 0.656250 0.000000
vt 0.656250 1.000000
vt 0.625000 0.000000
vt 0.625000 1.000000
vt 0.593750 0.000000
vt 0.593750 1.000000
vt 0.562500 0.000000
vt 0.562500 1.000000
vt 0.531250 0.000000
vt 0.531250 1.000000
vt 0.500000 0.000000
vt 0.500000 1.000000
vt 0.468750 0.000000
vt 0.468750 1.000000
vt 0.437500 0.000000
vt 0.437500 1.000000
vt 0.406250 0.000000
vt 0.406250 1.000000
vt 0.375000 0.000000
vt 0.375000 1.000000
vt 0.343750 0.000000
vt 0.343750 1.000000
vt 0.312500 0.000000
vt 0.312500 1.000000
vt 0.281250 0.000000
vt 0.281250 1.000000
vt 0.250000 1.000000
vt 0.984375 0.000000
vt 0.984375 1.000000
vt 0.968750 1.000000
vt 0.968750 0.000000
vt 0.937500 1.000000
vt 0.937500 0.000000
vt 0.906250 1.000000
vt 0.906250 0.000000
vt 0.875000 1.000000
vt 0.875000 0.000000
vt 0.843750 1.000000
vt 0.843750 0.000000
vt 0.812500 1.000000
vt 0.812500 0.000000
vt 0.781250 1.000000
vt 0.781250 0.000000
vt 0.750000 1.000000
vt 0.750000 0.000000
vt 0.718750 1.000000
vt 0.718750 0.000000
vt 0.687500 1.000000
vt 0.687500 0.000000
vt 0.656250 1.000000
vt 0.656250 0.000000
vt 0.625000 1.000000
vt 0.625000 0.000000
vt 0.593750 1.000000
vt 0.593750 0.000000
vt 0.562500 1.000000
vt 0.562500 0.000000
vt 0.531250 1.000000
vt 0.531250 0.000000
vt 0.500000 1.000000
vt 0.500000 0.000000
vt 0.468750 1.000000
vt 0.468750 0.000000
vt 0.437500 1.000000
vt 0.437500 0.000000
vt 0.406250 1.000000
vt 0.406250 0.000000
vt 0.375000 1.000000
vt 0.375000 0.000000
vt 0.343750 1.000000
vt 0.343750 0.000000
vt 0.312500 1.000000
vt 0.312500 0.000000
vt 0.281250 1.000000
vt 0.281250 0.000000
vt 0.250000 0.000000
vt 1.000000 1.000000
vt 1.000000 1.000000
vt 1.000000 0.000000
vt 1.000000 0.000000
vt 1.000000 1.000000
vt 1.000000 0.000000
vn -0.0543 0.0000 0.9985
vn -0.2903 0.0000 0.9569
vn -0.4714 0.0000 0.8819
vn -0.6344 0.0000 0.7730
vn -0.7730 0.0000 0.6344
vn -0.8819 0.0000 0.4714
vn -0.9569 0.0000 0.2903
vn -0.9952 0.0000 0.0980
vn -0.9952 0.0000 -0.0980
vn -0.9569 0.0000 -0.2903
vn -0.8819 0.0000 -0.4714
vn -0.7730 0.0000 -0.6344
vn -0.6344 0.0000 -0.7730
vn -0.4714 0.0000 -0.8819
vn -0.2903 0.0000 -0.9569
vn -0.0980 0.0000 -0.9952
vn 0.0980 0.0000 -0.9952
vn 0.3349 0.0000 -0.9422
vn 0.5592 0.0000 -0.8291
vn 0.7298 0.0000 -0.6837
vn 0.8936 0.0000 -0.4488
vn 0.9889 0.0000 -0.1484
vn 0.9972 0.0000 0.0744
vn 0.9780 0.0000 0.2086
vn 0.0491 0.0000 -0.9988
vn 0.2903 0.0000 -0.9569
vn 0.4714 0.0000 -0.8819
vn 0.6344 0.0000 -0.7730
vn 0.7730 0.0000 -0.6344
vn 0.8819 0.0000 -0.4714
vn 0.9569 0.0000 -0.2903
vn 0.9952 0.0000 -0.0980
vn 0.9952 0.0000 0.0980
vn 0.9569 0.0000 0.2903
vn 0.8819 0.0000 0.4714
vn 0.7730 0.0000 0.6344
vn 0.6344 0.0000 0.7730
vn 0.4714 0.0000 0.8819
vn 0.2903 0.0000 0.9569
vn 0.0790 0.0000 0.9969
vn 0.0552 0.0000 0.9985
vn -0.1420 0.0000 0.9899
vn -0.3534 0.0000 0.9355
vn -0.6076 0.0000 0.7942
vn -0.8269 0.0000 0.5623
vn -0.8986 0.0000 0.4388
vn -0.9212 0.0000 0.3892
vn -0.9611 0.0000 0.2762
vn -1.0000 -0.0031 -0.0014
vn 0.0100 -0.9924 0.1224
vn 0.0000 1.0000 0.0000
vn 0.0000 -1.0000 0.0000
vn -0.0474 0.9852 0.1645
vn -0.0474 -0.9852 0.1645
vn -0.0747 0.9776 0.1968
vn -0.0747 -0.9776 0.1968
vn -0.0869 0.9813 0.1717
vn -0.0869 -0.9813 0.1717
vn -0.0804 0.9846 0.1555
vn -0.0804 -0.9846 0.1555
vn -0.0419 0.8852 0.4632
vn -0.0419 -0.8852 0.4632
vn 0.0017 1.0000 0.0006
vn 0.0017 -1.0000 0.0006
vn 0.0215 0.9997 0.0147
vn 0.0215 -0.9997 0.0147
vn -1.0000 0.0000 -0.0000
vn 0.0186 0.9983 0.0561
vn -1.0000 0.0036 -0.0015
vn -1.0000 0.0001 -0.0063
vn 0.0186 -0.9983 0.0561
vn 0.0048 1.0000 0.0029
vn -0.0048 -1.0000 -0.0029
vn 0.0100 0.9924 0.1224
vn 0.6508 -0.7593 0.0012
vn 0.6692 0.0000 0.7431
vn 0.6848 -0.0001 -0.7287
vn 0.6542 0.7563 0.0013
usemtl None
s off
f 99/1/1 3/2/1 4/3/1 98/4/1
f 3/2/2 5/5/2 6/6/2 4/3/2
f 5/5/3 7/7/3 8/8/3 6/6/3
f 7/7/4 9/9/4 10/10/4 8/8/4
f 9/9/5 11/11/5 12/12/5 10/10/5
f 11/11/6 13/13/6 14/14/6 12/12/6
f 13/13/7 15/15/7 16/16/7 14/14/7
f 15/15/8 17/17/8 18/18/8 16/16/8
f 17/17/9 19/19/9 20/20/9 18/18/9
f 19/19/10 21/21/10 22/22/10 20/20/10
f 21/21/11 23/23/11 24/24/11 22/22/11
f 23/23/12 25/25/12 26/26/12 24/24/12
f 25/25/13 27/27/13 28/28/13 26/26/13
f 27/27/14 29/29/14 30/30/14 28/28/14
f 29/29/15 31/31/15 32/32/15 30/30/15
f 31/31/16 33/33/16 34/34/16 32/32/16
f 33/33/17 35/35/17 36/36/17 34/34/17
f 35/35/18 37/37/18 38/38/18 36/36/18
f 37/37/19 39/39/19 40/40/19 38/38/19
f 39/39/20 41/41/20 42/42/20 40/40/20
f 41/41/21 43/43/21 44/44/21 42/42/21
f 43/43/22 45/45/22 46/46/22 44/44/22
f 45/45/23 47/47/23 48/48/23 46/46/23
f 47/47/24 49/49/24 48/48/24
f 101/50/25 100/51/25 53/52/25 50/53/25
f 50/53/26 53/52/26 55/54/26 54/55/26
f 54/55/27 55/54/27 57/56/27 56/57/27
f 56/57/28 57/56/28 59/58/28 58/59/28
f 58/59/29 59/58/29 61/60/29 60/61/29
f 60/61/30 61/60/30 63/62/30 62/63/30
f 62/63/31 63/62/31 65/64/31 64/65/31
f 64/65/32 65/64/32 67/66/32 66/67/32
f 66/67/33 67/66/33 69/68/33 68/69/33
f 68/69/34 69/68/34 71/70/34 70/71/34
f 70/71/35 71/70/35 73/72/35 72/73/35
f 72/73/36 73/72/36 75/74/36 74/75/36
f 74/75/37 75/74/37 77/76/37 76/77/37
f 76/77/38 77/76/38 79/78/38 78/79/38
f 78/79/39 79/78/39 81/80/39 80/81/39
f 80/81/40 81/80/40 83/82/40 82/83/40
f 82/83/41 83/82/41 85/84/41 84/85/41
f 84/85/42 85/84/42 87/86/42 86/87/42
f 86/87/43 87/86/43 89/88/43 88/89/43
f 88/89/44 89/88/44 91/90/44 90/91/44
f 90/91/45 91/90/45 93/92/45 92/93/45
f 92/93/46 93/92/46 95/94/46 94/95/46
f 94/95/47 95/94/47 97/96/47 96/97/47
f 96/97/48 97/96/48 49/98/48
f 2/99/49 98/4/49 100/51/49 52/100/49
f 38/38/50 40/40/50 89/88/50 87/86/50
f 5/5/51 3/2/51 50/53/51 54/55/51
f 23/23/51 21/21/51 70/71/51 72/73/51
f 4/3/52 6/6/52 55/54/52 53/52/52
f 41/41/53 39/39/53 88/89/53 90/91/53
f 22/22/52 24/24/52 73/72/52 71/70/52
f 40/40/54 42/42/54 91/90/54 89/88/54
f 7/7/51 5/5/51 54/55/51 56/57/51
f 25/25/51 23/23/51 72/73/51 74/75/51
f 6/6/52 8/8/52 57/56/52 55/54/52
f 43/43/55 41/41/55 90/91/55 92/93/55
f 24/24/52 26/26/52 75/74/52 73/72/52
f 42/42/56 44/44/56 93/92/56 91/90/56
f 9/9/51 7/7/51 56/57/51 58/59/51
f 27/27/51 25/25/51 74/75/51 76/77/51
f 8/8/52 10/10/52 59/58/52 57/56/52
f 45/45/57 43/43/57 92/93/57 94/95/57
f 26/26/52 28/28/52 77/76/52 75/74/52
f 44/44/58 46/46/58 95/94/58 93/92/58
f 11/11/51 9/9/51 58/59/51 60/61/51
f 29/29/51 27/27/51 76/77/51 78/79/51
f 10/10/52 12/12/52 61/60/52 59/58/52
f 47/47/59 45/45/59 94/95/59 96/97/59
f 28/28/52 30/30/52 79/78/52 77/76/52
f 46/46/60 48/48/60 97/96/60 95/94/60
f 13/13/51 11/11/51 60/61/51 62/63/51
f 31/31/51 29/29/51 78/79/51 80/81/51
f 12/12/52 14/14/52 63/62/52 61/60/52
f 49/98/61 47/47/61 96/97/61
f 30/30/52 32/32/52 81/80/52 79/78/52
f 48/48/62 49/49/62 97/96/62
f 15/15/51 13/13/51 62/63/51 64/65/51
f 33/33/63 31/31/63 80/81/63 82/83/63
f 14/14/52 16/16/52 65/64/52 63/62/52
f 32/32/64 34/34/64 83/82/64 81/80/64
f 17/17/51 15/15/51 64/65/51 66/67/51
f 35/35/65 33/33/65 82/83/65 84/85/65
f 16/16/52 18/18/52 67/66/52 65/64/52
f 34/34/66 36/36/66 85/84/66 83/82/66
f 1/101/67 99/1/67 98/4/67 2/99/67
f 19/19/51 17/17/51 66/67/51 68/69/51
f 37/37/68 35/35/68 84/85/68 86/87/68
f 18/18/52 20/20/52 69/68/52 67/66/52
f 99/1/69 1/101/69 51/102/69 101/50/69
f 51/102/70 52/100/70 100/51/70 101/50/70
f 36/36/71 38/38/71 87/86/71 85/84/71
f 3/2/72 99/1/72 101/50/72 50/53/72
f 21/21/51 19/19/51 68/69/51 70/71/51
f 98/4/73 4/3/73 53/52/73 100/51/73
f 39/39/74 37/37/74 86/87/74 88/89/74
f 20/20/52 22/22/52 71/70/52 69/68/52
f 2/99/75 52/100/75 102/103/75
f 1/101/76 2/99/76 102/104/76
f 52/100/77 51/102/77 102/103/77
f 51/102/78 1/101/78 102/104/78
o BezierCurve
v -0.003036 0.004483 0.007865
v -0.002903 0.026342 0.007651
v -0.002626 0.071758 0.007205
v -0.002233 0.136118 0.006574
v -0.001754 0.214806 0.005802
v -0.001215 0.303209 0.004935
v -0.000644 0.396712 0.004018
v -0.000071 0.490701 0.003097
v 0.000477 0.580561 0.002215
v 0.000971 0.661677 0.001420
v 0.001384 0.729437 0.000755
v 0.001688 0.779224 0.000267
v 0.001854 0.806426 -0.000000
l 103 104
l 104 105
l 105 106
l 106 107
l 107 108
l 108 109
l 109 110
l 110 111
l 111 112
l 112 113
l 113 114
l 114 115
